<?xml version="1.0" standalone="no"?>
<!DOCTYPE svg PUBLIC "-//W3C//DTD SVG 20010904//EN"
 "http://www.w3.org/TR/2001/REC-SVG-20010904/DTD/svg10.dtd">
<svg version="1.0" xmlns="http://www.w3.org/2000/svg"
 width="294.000000pt" height="314.000000pt" viewBox="0 0 294.000000 314.000000"
 preserveAspectRatio="xMidYMid meet">
<metadata>
Created by potrace 1.16, written by Peter Selinger 2001-2019
</metadata>
<g transform="translate(0.000000,314.000000) scale(0.100000,-0.100000)"
fill="#000000" stroke="none">
<path d="M711 2821 c-6 -10 -20 -43 -31 -73 -11 -30 -31 -65 -45 -78 -26 -24
-33 -14 -15 21 6 10 7 19 2 19 -5 0 -12 15 -16 33 -5 25 -9 29 -16 17 -16 -25
-12 -60 5 -54 28 11 15 -9 -37 -58 -29 -27 -54 -44 -56 -39 -6 18 -31 12 -31
-6 1 -10 -16 -58 -37 -108 -20 -49 -45 -124 -54 -165 -10 -41 -19 -79 -20 -85
-1 -5 -2 -17 -1 -25 1 -13 2 -13 11 0 9 13 10 13 9 0 0 -8 -4 -24 -9 -35 l-9
-20 -1 20 c-1 16 -4 14 -15 -10 -18 -39 -18 -56 -1 -49 10 4 14 -2 12 -20 -1
-21 -5 -24 -23 -19 -14 3 -23 1 -23 -6 0 -6 5 -11 10 -11 7 0 9 -13 5 -32 -3
-18 -7 -40 -8 -48 -2 -8 -6 -20 -10 -26 -10 -16 -1 -21 32 -16 16 2 32 11 35
18 4 10 0 14 -12 12 -10 -2 -16 3 -15 12 3 36 69 206 83 214 26 17 70 64 70
76 0 40 -76 -36 -101 -102 -6 -16 -15 -28 -19 -28 -12 0 26 87 54 125 12 17
28 44 35 62 7 17 28 42 47 55 34 23 46 45 19 34 -19 -7 -19 5 -1 30 16 21 14
24 36 -49 10 -32 9 -42 -4 -62 -17 -26 -9 -34 12 -13 14 14 17 11 26 -19 5
-14 3 -23 -3 -23 -6 0 -11 -6 -11 -13 0 -8 -9 -22 -21 -33 -11 -10 -25 -28
-31 -39 -11 -23 44 32 61 61 9 16 12 17 20 4 12 -18 -6 -51 -37 -65 -12 -5
-22 -14 -22 -20 0 -5 -10 -22 -23 -37 -21 -24 -24 -25 -35 -10 -10 16 -12 15
-24 -3 -21 -34 -16 -73 10 -80 30 -7 41 0 35 24 -3 13 12 41 48 85 29 36 56
66 60 66 8 0 7 1 72 -177 l44 -121 -30 -6 c-16 -3 -55 -6 -86 -6 -51 -1 -91
-16 -91 -34 0 -4 19 -4 43 -1 58 9 122 -28 190 -110 28 -35 56 -64 60 -64 9
-1 -34 55 -73 97 -24 26 -24 27 7 36 26 8 40 -9 18 -22 -13 -6 -5 -14 37 -37
29 -15 61 -35 71 -43 20 -17 23 -3 7 29 -13 24 -7 24 65 -1 36 -12 63 -17 73
-11 10 5 31 2 59 -11 24 -11 49 -18 55 -16 10 4 -8 13 -119 59 -29 12 -50 25
-47 30 3 5 -1 6 -9 3 -8 -3 -31 2 -51 10 -50 21 -45 9 7 -15 41 -20 41 -20 8
-15 -18 3 -37 6 -42 6 -4 0 -14 14 -23 31 -14 29 -14 30 6 23 14 -4 18 -3 13
6 -4 7 -18 9 -36 5 -25 -6 -28 -4 -22 12 6 16 5 16 -10 4 -15 -12 -21 -9 -19
10 1 4 -8 5 -18 2 -11 -3 -20 -1 -20 5 0 6 24 13 53 17 28 4 57 12 64 17 7 5
55 12 107 14 52 2 114 8 138 13 23 5 72 12 108 16 36 3 79 13 96 20 17 8 56
14 87 14 30 -1 60 2 66 5 7 5 3 25 -10 59 -12 29 -52 144 -91 257 -38 113 -77
211 -86 218 -9 6 -30 10 -47 7 -16 -2 -106 -7 -200 -11 -163 -6 -169 -5 -155
13 14 17 14 17 -5 2 -15 -12 -51 -19 -133 -24 l-114 -7 12 21 c6 12 18 25 26
28 8 3 13 12 10 20 -7 16 30 93 43 93 5 0 17 8 27 17 9 10 23 18 32 19 26 4
72 26 72 35 0 4 -17 1 -37 -7 -20 -9 -48 -17 -62 -18 -22 -3 -35 -20 -81 -104
-52 -96 -81 -124 -93 -89 -6 18 42 98 76 126 20 16 25 26 17 31 -9 6 -8 14 5
34 16 23 38 96 29 96 -2 0 -8 -8 -13 -19z m-182 -317 c-29 -54 -55 -91 -57
-83 -11 43 -13 44 -23 29 -5 -8 -9 -35 -9 -60 1 -53 -3 -81 -14 -98 -4 -6 -13
-23 -20 -36 -7 -14 -17 -21 -23 -18 -17 11 71 271 97 287 6 3 10 16 11 28 0
14 16 33 42 53 61 44 60 18 -4 -102z m695 -134 c10 -34 17 -63 15 -65 -2 -2
-32 -7 -65 -10 l-61 -7 -17 48 c-26 76 -23 82 32 87 26 2 54 4 63 5 11 1 21
-16 33 -58z"/>
<path d="M1519 2354 c-6 -8 -16 -11 -22 -7 -10 6 -9 2 10 -44 3 -7 -2 -13 -10
-13 -20 0 -28 -36 -11 -51 8 -7 14 -37 16 -82 3 -66 5 -73 30 -86 20 -12 34
-13 55 -5 27 9 28 12 31 83 2 40 -2 78 -7 85 -8 9 -5 12 11 12 11 -1 23 6 26
14 4 12 3 13 -10 2 -13 -10 -17 -9 -22 10 -9 33 -8 35 14 41 24 6 25 16 6 42
-12 17 -16 17 -30 6 -11 -10 -13 -18 -7 -24 13 -13 -6 -50 -20 -42 -5 4 -7 11
-4 16 3 5 -1 6 -9 3 -20 -8 -21 10 -1 30 20 19 19 21 -10 22 -13 1 -29 -4 -36
-12z"/>
<path d="M737 1653 c-31 -13 -42 -14 -61 -3 -31 16 -86 4 -86 -19 0 -9 6 -25
13 -36 13 -17 22 -17 138 -7 68 5 127 8 131 6 5 -3 8 -3 8 -1 0 6 -92 77 -99
76 -3 -1 -23 -8 -44 -16z"/>
<path d="M187 1593 c-4 -3 -7 -30 -7 -60 0 -34 -4 -53 -12 -53 -9 0 -9 -3 0
-12 13 -13 17 -108 4 -108 -4 0 -7 -12 -8 -27 0 -16 -1 -49 -2 -74 l-2 -47
-42 -6 c-24 -4 -50 -11 -58 -16 -13 -9 -12 -12 5 -26 61 -46 277 -65 358 -31
45 19 43 29 -13 47 l-41 14 6 80 c3 45 8 101 10 126 l5 45 -19 -55 c-10 -30
-22 -86 -26 -123 -6 -62 -9 -68 -28 -65 -22 3 -22 6 -22 180 0 97 -4 180 -8
184 -4 4 -7 -9 -7 -30 0 -22 -4 -35 -10 -31 -5 3 -10 -1 -10 -9 0 -8 5 -18 10
-21 6 -3 10 -28 10 -56 0 -37 -4 -49 -15 -49 -8 0 -15 -7 -15 -16 0 -8 5 -12
10 -9 12 7 12 -29 0 -65 -7 -23 -8 -23 -10 10 -2 30 -4 26 -12 -22 -8 -47 -14
-58 -29 -58 -18 0 -19 10 -17 195 2 107 3 195 2 195 0 0 -4 -3 -7 -7z"/>
<path d="M1277 1563 c-4 -3 -7 -124 -7 -268 0 -145 -3 -276 -6 -293 -5 -27
-12 -31 -68 -46 -67 -17 -165 -24 -184 -12 -7 4 -16 4 -22 1 -5 -3 -42 -8 -82
-10 -40 -2 -84 -7 -98 -10 -14 -3 -50 -9 -80 -12 -30 -3 -62 -9 -70 -13 -8 -4
-27 -7 -42 -6 -16 1 -28 -2 -28 -6 0 -4 -7 -4 -17 -1 -10 4 -14 2 -10 -4 5 -7
0 -9 -13 -6 -11 3 -20 1 -20 -5 0 -6 -8 -11 -17 -10 -10 0 -31 -3 -47 -7 l-29
-6 8 93 c3 51 11 95 16 96 5 2 8 27 7 55 l-2 52 -3 -47 c-4 -44 -6 -47 -48
-65 -47 -19 -58 -33 -27 -33 10 0 19 -7 19 -15 0 -8 -5 -15 -10 -15 -5 0 -7
-6 -4 -14 4 -9 -10 -31 -31 -54 -40 -42 -77 -101 -107 -170 -22 -52 -22 -52
80 -84 39 -12 75 -25 82 -30 6 -5 78 -11 160 -14 170 -5 187 -8 257 -40 28
-13 63 -24 77 -24 14 0 29 -3 33 -7 3 -4 16 -8 26 -10 11 -2 46 -12 78 -22 32
-11 82 -23 112 -26 95 -12 145 -34 108 -48 -17 -6 18 -35 52 -43 14 -3 34 -10
45 -16 60 -34 114 -58 150 -67 48 -13 287 -7 364 8 29 6 57 8 62 5 11 -6 11 2
-1 206 -11 191 -29 338 -42 346 -23 15 -170 42 -231 43 -37 1 -75 6 -85 11
-23 13 -99 37 -144 45 -27 5 -38 13 -40 29 -2 11 -4 -6 -5 -39 -1 -71 -37
-247 -57 -278 -22 -35 -30 -88 -15 -98 11 -6 11 -19 1 -67 -7 -32 -12 -69 -12
-82 0 -13 -3 -21 -6 -17 -10 9 -5 263 7 362 6 50 20 130 30 179 16 75 19 132
19 353 l0 263 -38 0 c-21 0 -42 -3 -45 -7z"/>
<path d="M1996 732 c5 -64 9 -183 8 -264 0 -137 1 -148 18 -148 10 0 18 5 18
12 0 7 7 5 18 -5 16 -15 20 -15 39 -2 18 13 23 13 30 2 12 -21 53 -28 60 -11
7 19 23 18 23 -1 0 -8 5 -15 11 -15 5 0 9 8 8 17 -3 31 1 39 11 23 7 -12 12
-12 22 -2 14 14 28 16 28 4 0 -5 -10 -14 -22 -21 -15 -8 -16 -10 -4 -6 10 3
24 1 31 -5 9 -8 17 -3 30 17 18 28 18 28 -2 11 -25 -23 -31 -23 -29 0 0 9 -6
18 -14 18 -8 1 -21 2 -29 3 -10 1 -11 4 -2 14 6 8 8 17 4 20 -3 4 5 8 18 8 13
1 33 2 44 3 11 1 28 -5 37 -12 14 -12 19 -11 37 7 11 11 23 16 26 11 3 -5 1
-11 -4 -14 -5 -3 -7 -15 -4 -26 4 -14 0 -20 -10 -20 -9 0 -22 -10 -28 -22 -9
-19 -9 -21 1 -11 10 9 17 7 31 -10 l19 -22 -10 27 c-5 16 -8 28 -7 29 1 0 14
2 29 4 23 3 27 0 25 -17 -1 -11 4 -23 11 -25 6 -3 12 0 12 7 0 6 -4 8 -10 5
-5 -3 -10 -1 -10 5 0 15 26 24 48 15 17 -6 28 -4 25 6 -1 3 31 4 72 2 70 -2
73 -2 79 22 4 14 3 43 0 65 -5 32 -10 38 -22 31 -22 -12 -52 -2 -45 15 4 12 0
14 -22 8 -18 -4 -26 -3 -22 3 4 6 -17 17 -51 25 -48 13 -160 57 -223 89 -9 4
-33 11 -52 14 -39 8 -63 28 -52 44 4 7 -1 8 -12 4 -16 -6 -16 -5 -4 10 7 9 16
15 20 13 3 -2 15 5 25 15 15 14 16 19 5 20 -9 0 -7 3 4 8 16 6 9 13 -40 43
-56 34 -82 45 -167 67 l-38 10 8 -117z"/>
</g>
</svg>
